<?xml version="1.0" encoding="UTF-8" standalone="no"?>
<!-- Created with Inkscape (http://www.inkscape.org/) -->

<svg
   width="120.86881mm"
   height="93.019958mm"
   viewBox="0 0 120.86881 93.019958"
   version="1.1"
   id="svg1"
   xml:space="preserve"
   xmlns="http://www.w3.org/2000/svg"
   xmlns:svg="http://www.w3.org/2000/svg"><defs
     id="defs1" /><g
     id="layer1"
     transform="translate(-48.233544,-180.95784)"><path
       style="font-size:44.1247px;line-height:1.35;font-family:SugarPieW00-Regular;-inkscape-font-specification:'SugarPieW00-Regular, Normal';letter-spacing:-0.652919px;fill:#2ca02c;stroke-width:2.73887"
       d="m -12.359021,250.67127 q -1.588489,-0.61774 -3.397602,-0.83837 -1.764988,-0.26474 -3.706474,-0.26474 -2.647482,0 -5.294964,0.30887 -2.603358,0.30887 -5.16259,0.70599 -1.103118,0 -2.16211,-0.44124 -1.014868,-0.44125 -1.809113,-1.19137 -0.794245,-0.79425 -1.279616,-1.80911 -0.485372,-1.01487 -0.485372,-2.20624 0,-1.27961 0.705995,-3.61822 0.705995,-2.33861 1.764988,-5.11847 1.058993,-2.77985 2.25036,-5.73621 1.235491,-3.00048 2.294484,-5.60384 1.058993,-2.64748 1.764988,-4.58896 0.705995,-1.94149 0.705995,-2.69161 0,-0.706 -0.132374,-1.27962 -0.132374,-0.61774 -0.75012,-1.32374 0.397123,-0.1765 1.367866,-0.39712 0.970743,-0.22062 2.294484,-0.39712 1.323741,-0.1765 2.91223,-0.26475 1.632614,-0.13238 3.353478,-0.13238 2.382733,0 4.809592,0.30888 2.4268581,0.30887 4.3242202,1.10311 1.9414867,0.75012 3.1328536,2.07387 1.2354915,1.27961 1.2354915,3.30935 0,0.44124 -0.044125,0.97074 0,0.48537 -0.1323741,0.97074 -0.1323741,0.48538 -0.3971222,0.8825 -0.2647482,0.353 -0.7059952,0.48537 -0.7942446,-0.75012 -1.8532374,-1.23549 -1.014868,-0.5295 -2.1621102,-0.83837 -1.1472422,-0.353 -2.3827332,-0.48537 -1.191367,-0.1765 -2.338609,-0.1765 -1.456115,0 -2.735732,0.22062 -1.235491,0.22063 -1.985611,0.61775 -0.176499,0.52949 -0.66187,1.50024 -0.485372,0.97074 -1.014869,2.02973 -0.529496,1.059 -0.926618,2.02974 -0.397123,0.97074 -0.397123,1.45612 1.279617,-0.0882 1.764988,-0.0882 0.529497,0 0.794245,0 1.367866,0 2.91223,0.13237 1.544365,0.0882 2.823981,0.5295 1.323741,0.44124 2.16211,1.36786 0.882494,0.92662 0.882494,2.64748 0,2.02974 -0.132374,2.95636 -0.08825,0.88249 -0.441247,1.10312 -0.617746,-0.5295 -1.544365,-0.83837 -0.926618,-0.353 -2.029736,-0.5295 -1.058992,-0.22062 -2.206235,-0.30887 -1.103117,-0.0882 -2.029736,-0.0882 -1.279616,0 -2.82398,0.13237 -1.50024,0.0882 -2.912231,0.61775 -0.617745,0.22062 -1.103117,0.92662 -0.441247,0.66187 -0.75012,1.45611 -0.308873,0.79425 -0.485372,1.54437 -0.132374,0.75012 -0.176498,1.10311 l 0.08825,0.0883 q 0.485372,0 1.367866,-0.13237 0.926618,-0.13237 1.809112,-0.13237 2.823981,0 4.986091,0.30887 2.162111,0.26475 3.574101,1.05899 1.41199,0.79425 2.117985,2.20624 0.75012,1.36786 0.75012,3.5741 0,0.0883 -0.04412,0.44124 0,0.30888 -0.04412,0.66187 -0.04412,0.353 -0.132374,0.66187 -0.04412,0.26475 -0.176499,0.26475 z M 8.2120197,235.1835 q -0.6177458,-1.58849 -1.456115,-2.25036 -0.8383693,-0.70599 -1.8091127,-0.70599 -1.2796162,0 -2.6916066,1.05899 -1.41199034,1.01487 -2.60335721,2.55923 -1.19136689,1.50024 -1.98561139,3.17698 -0.7942446,1.67674 -0.7942446,3.00048 0,1.01487 0.5736211,1.67674 0.573621,0.61775 1.8532373,0.61775 1.05899277,0 2.4268584,-0.48538 1.4119904,-0.48537 2.7357313,-1.27961 1.3678657,-0.79425 2.4709832,-1.76499 1.1472421,-0.97074 1.6326138,-1.94149 -0.3971223,2.11799 -1.3237409,4.23597 -0.9266187,2.11799 -2.3827338,3.83885 -1.456115,1.67674 -3.4858512,2.73573 -1.9856114,1.01487 -4.5448439,1.01487 -1.9414868,0 -3.3093524,-0.48537 -1.3678657,-0.48537 -2.2503596,-1.32374 -0.882494,-0.83837 -1.2796165,-1.98561 -0.397122,-1.14724 -0.397122,-2.51511 0,-1.85324 0.6618704,-3.9271 0.7059952,-2.11798 1.8532373,-4.19184 1.1913669,-2.11799 2.779856,-4.01535 1.6326139,-1.89736 3.4417265,-3.35348 1.85323738,-1.50024 3.8388488,-2.33861 2.0297362,-0.88249 4.0153476,-0.88249 2.5592325,0 3.7064747,1.10312 1.1472417,1.10311 1.1472417,2.73573 0,1.36786 -0.750119,2.91223 -0.7059956,1.50024 -2.0738613,2.77985 z m 14.8348773,-0.75012 q 0,-1.45611 -0.838369,-2.11798 -0.794245,-0.706 -1.941487,-0.706 -0.970743,0 -2.073861,0.44125 -1.058992,0.39712 -2.029736,1.19137 h 0.264748 q 1.147243,0 2.25036,0.48537 1.103118,0.48537 2.16211,1.58849 -1.323741,0.39712 -2.426858,1.27961 -1.058993,0.83837 -1.853237,1.89737 -0.75012,1.05899 -1.191367,2.20623 -0.441247,1.10312 -0.441247,1.98561 0,0.75012 0.352997,1.23549 0.352998,0.48538 1.103118,0.48538 1.058992,0 2.206235,-1.01487 1.191367,-1.059 2.16211,-2.55924 1.014868,-1.54436 1.632614,-3.26522 0.66187,-1.72087 0.66187,-3.13286 z m -14.7376491,9.88394 q 0,-1.89737 0.4853717,-3.61823 0.4853716,-1.72086 1.3237414,-3.13285 v -0.39713 q 0,-2.42685 1.235491,-4.50071 1.235492,-2.11799 3.132854,-3.61823 1.941486,-1.54436 4.280095,-2.42686 2.338609,-0.88249 4.50072,-0.88249 1.367865,0 2.603357,0.39712 1.235491,0.39712 2.117985,1.23549 0.926619,0.83837 1.456116,2.16211 0.529496,1.32374 0.529496,3.17698 0,2.82398 -1.147242,6.00096 -1.103118,3.13285 -3.132854,5.78033 -1.985611,2.64749 -4.765467,4.41247 -2.735732,1.72087 -5.956835,1.72087 -1.235491,0 -2.426858,-0.48537 -1.191367,-0.48538 -2.16211,-1.32374 -0.926619,-0.83837 -1.50024,-1.98562 -0.5736211,-1.19136 -0.5736211,-2.5151 z"
       id="text12"
       transform="rotate(-20.035002)"
       aria-label="Eco" /><path
       style="font-size:44.1247px;line-height:1.35;font-family:SugarPieW00-Regular;-inkscape-font-specification:'SugarPieW00-Regular, Normal';letter-spacing:-0.652919px;fill:#2ca02c;stroke-width:2.73887"
       d="m 88.720531,257.42293 q 0.105817,0.29018 0.810543,0.0332 0.580362,-0.21163 1.601614,-0.63099 1.047564,-0.47599 2.871559,-1.14113 0.165817,-0.0605 0.160985,-1.23289 -0.0048,-1.17241 -0.115483,-2.635 -0.0692,-1.47771 -0.202285,-2.74426 -0.14821,-1.308 -0.269142,-1.63962 -0.03025,-0.083 -0.444795,0.0682 -0.406755,0.43012 -1.261245,1.82196 -0.813035,1.37673 -1.591942,2.97584 -0.794022,1.55766 -1.282748,3.05095 -0.503841,1.45185 -0.277088,2.07366 z m 15.864739,9.76079 q -2.11417,0.77096 -3.57677,0.88161 -1.436254,0.0541 -2.499885,-0.54435 -1.063634,-0.59844 -1.852674,-1.86063 -0.747581,-1.27729 -1.473192,-3.2671 -0.120936,-0.33164 -0.674958,-0.17657 -0.52767,0.0985 -1.190941,0.34041 -0.870543,0.31745 -1.865449,0.68026 -0.994906,0.3628 -1.974704,0.76704 -0.938344,0.38912 -1.763527,0.83096 -0.840326,0.40032 -1.443112,0.80805 -0.289247,1.13875 -0.367323,2.3414 -0.05174,1.14607 -0.03569,2.22046 0.05751,1.05927 0.152571,1.96394 0.07995,0.86322 0.152104,1.44747 -1.036361,0.37793 -2.404824,0.36032 -1.327009,-0.0327 -2.635471,-0.40098 -1.282127,-0.42483 -2.323321,-1.21932 -1.041193,-0.7945 -1.464464,-1.95522 -0.589557,-1.61672 -0.316363,-3.82985 0.258074,-2.2546 1.051162,-4.84519 0.793088,-2.59059 2.027055,-5.38893 1.26031,-2.85489 2.592305,-5.642 1.358331,-2.84369 2.679106,-5.53277 1.320774,-2.68908 2.359161,-4.99339 1.023268,-2.34576 1.587109,-4.14825 0.548723,-1.84395 0.351737,-2.89932 0.165818,-0.0605 0.331636,-0.12093 0.150709,-0.1019 0.316527,-0.16237 1.326541,-0.48374 2.887158,-0.58317 1.545505,-0.14088 2.951995,0.2386 1.432826,0.3229 2.545708,1.18519 1.139217,0.80571 1.653194,2.21516 0.54421,1.49236 0.64068,3.94643 0.1228,2.3975 0.36748,6.15957 0.22956,3.72061 0.86384,8.93748 0.67575,5.20175 2.35216,12.24604 z m 7.39497,-10.91588 q 0.5389,-0.19652 1.24316,-0.96997 0.68914,-0.81491 1.39683,-1.96535 0.69257,-1.19189 1.35101,-2.60618 0.64332,-1.45573 1.09059,-2.93391 0.44727,-1.47817 0.66093,-2.8242 0.19855,-1.38747 0.0279,-2.49942 -0.85544,0.35888 -1.75184,1.2494 -0.89641,0.89049 -1.76992,2.1014 -0.83205,1.19579 -1.5734,2.6403 -0.715,1.38795 -1.20763,2.74176 -0.45117,1.3387 -0.62727,2.53012 -0.13464,1.17632 0.13746,1.92249 0.22675,0.62182 0.56228,0.64037 0.37699,0.003 0.4599,-0.0268 z m 12.64002,12.25181 q -0.78763,0.28722 -1.85812,0.44274 -1.02904,0.14042 -2.08099,-0.0396 -1.03682,-0.13854 -1.88929,-0.67308 -0.85247,-0.53455 -1.2455,-1.61236 -0.40816,-1.11928 -0.55247,-2.28779 -0.10286,-1.18363 -0.0662,-2.37116 0.0215,-1.22899 0.11471,-2.39017 0.0781,-1.20265 0.0318,-2.35995 -1.04525,3.05828 -2.50644,4.71833 -1.41973,1.64493 -2.91209,2.18914 -2.03127,0.74073 -3.83423,-0.33959 -1.80295,-1.0803 -2.70996,-3.56757 -0.52909,-1.45091 -0.5573,-3.4602 -0.002,-2.06586 0.36935,-4.26777 0.41267,-2.21704 1.18721,-4.4721 0.77454,-2.25506 1.78316,-4.12581 1.03496,-1.92732 2.28155,-3.27428 1.27294,-1.40352 2.64093,-1.90238 1.24363,-0.4535 2.52576,-0.0287 1.30846,0.36825 2.59542,1.96549 0.10878,-0.60327 0.18,-1.05194 0.0561,-0.49013 0.0971,-1.02172 0.041,-0.53158 0.0366,-1.18753 -0.0195,-0.6974 -0.0882,-1.65864 2.66478,-0.54903 4.39558,-0.053 1.77225,0.48093 2.25599,1.80747 0.36281,0.99491 0.34567,2.87984 -0.0323,1.84348 -0.25621,4.32045 -0.18249,2.46187 -0.46254,5.42898 -0.29517,2.92565 -0.43184,6.02835 -0.13668,3.10269 -0.0622,6.26928 0.13107,3.19293 0.67278,6.09521 z m 18.88124,-15.48024 q -0.912,0.33258 -1.80934,0.19013 -0.87101,-0.19901 -1.68203,-0.74867 -0.76955,-0.56478 -1.46399,-1.43875 -0.6681,-0.93054 -1.15917,-2.01958 -0.65657,3.48015 -2.01583,5.2909 -1.31782,1.79563 -2.89309,2.37007 -0.95345,0.34769 -1.91859,0.27694 -0.96514,-0.0707 -1.81371,-0.46581 -0.80712,-0.41019 -1.44109,-1.11834 -0.63397,-0.70815 -0.96654,-1.62016 -0.43839,-1.20217 -0.54172,-2.90227 -0.10332,-1.7001 -0.0598,-3.6416 0.0435,-1.94151 0.19621,-3.96981 0.1376,-2.06976 0.21132,-3.92835 0.10005,-1.91517 0.027,-3.53236 -0.0468,-1.67376 -0.39834,-2.76669 0.87054,-0.31745 1.9147,-0.41641 1.07049,-0.15554 2.00929,-0.0282 0.98025,0.1122 1.7308,0.49605 0.75054,0.38383 1.00753,1.08856 0.25698,0.70472 0.23158,1.79423 0.0161,1.07439 -0.15615,2.4053 -0.14587,1.27433 -0.35953,2.62035 -0.21366,1.34602 -0.40098,2.63548 -0.16099,1.23287 -0.20151,2.28093 -0.0142,0.99148 0.19745,1.57183 0.10582,0.29018 0.26432,0.46723 0.15849,0.17703 0.50914,0.23703 0.87054,-0.31745 1.53334,-1.07579 0.68914,-0.81491 1.17834,-1.79174 0.53064,-0.99194 0.90669,-2.02145 0.36094,-1.07095 0.61652,-1.91563 0.34582,-1.11241 0.6307,-2.9071 0.31122,-1.85127 0.5093,-3.75522 0.23953,-1.91905 0.2908,-3.5816 0.0776,-1.71911 -0.0852,-2.5521 0.55402,-0.15508 1.51527,-0.22378 0.96124,-0.0687 1.91517,0.10005 0.98025,0.1122 1.77225,0.48093 0.79199,0.36872 1.04898,1.07344 0.31746,0.87055 0.0628,2.74816 -0.22831,1.82103 -0.55808,4.00783 -0.32976,2.1868 -0.46347,4.39604 -0.0923,2.19412 0.48218,3.76939 0.30234,0.82909 0.672,1.07003 0.41112,0.22581 0.86711,0.0595 0.58037,-0.21164 1.21683,-0.9134 0.62135,-0.74322 1.15589,-1.59569 0.56088,-0.90904 0.97107,-1.71615 0.39506,-0.84857 0.52285,-1.2709 -0.0513,1.66253 -0.41517,3.62695 -0.32244,1.94929 -1.02576,3.75568 -0.71843,1.76493 -1.79532,3.1909 -1.09199,1.38451 -2.5429,1.9136 z m 15.56766,-23.66528 q 0.62914,-0.46427 1.16805,-0.66079 0.74618,-0.2721 1.47381,-0.20867 0.75398,0.007 1.41771,0.28146 0.64862,0.23313 1.10899,0.7228 0.4867,0.43308 0.71345,1.0549 0.0907,0.24873 -0.0103,1.13096 -0.1161,0.84077 -0.22441,1.96051 -0.0668,1.10462 -0.062,2.27704 0.005,1.17241 0.3374,2.08441 0.15117,0.41455 0.60717,0.24826 0.33163,-0.12093 0.77984,-0.56618 0.44821,-0.44525 0.85106,-1.01486 0.44431,-0.58473 0.81693,-1.23725 0.35751,-0.69396 0.5492,-1.32747 l 0.0829,-0.0302 q 0.41595,1.39823 0.42124,3.0871 0.0316,1.63231 -0.40051,3.15195 -0.43216,1.51962 -1.38857,2.76077 -0.95641,1.24114 -2.49023,1.80046 -0.78763,0.28722 -1.51526,0.2238 -0.74276,-0.10489 -1.38016,-0.43606 -0.65251,-0.37262 -1.22602,-0.91495 -0.54717,-0.59891 -0.96997,-1.24317 -0.89501,2.43989 -2.19428,3.89999 -1.31439,1.41865 -2.76529,1.94774 -2.19708,0.80119 -4.26778,-0.36935 -2.0707,-1.17054 -3.15911,-4.15526 -0.86166,-2.3629 -0.84499,-4.7643 0.0167,-2.4014 0.65174,-4.65256 0.6614,-2.30773 1.83194,-4.37843 1.17054,-2.0707 2.67318,-3.74586 1.52899,-1.73174 3.23937,-2.96602 1.71039,-1.23428 3.41002,-1.85408 1.94835,-0.71049 3.41141,-0.30468 1.44795,0.36437 1.96192,1.77382 0.52909,1.45091 -0.1362,3.61916 -1.46259,0.11065 -2.62332,0.53392 -2.19708,0.8012 -3.68461,2.51782 -1.50265,1.67516 -2.35667,3.58347 -0.85402,1.90831 -1.08233,3.72934 -0.20197,1.76446 0.14571,2.71791 0.37793,1.03637 1.24847,0.71891 0.78763,-0.28722 1.60456,-1.52447 0.80182,-1.2787 1.36956,-2.9417 0.60919,-1.67813 0.86773,-3.41625 0.28489,-1.7947 0.0387,-3.11391 z"
       id="text3"
       aria-label="Aqua" /><g
       id="g14"
       transform="matrix(0.94342363,0,0,0.94342363,6.3411942,11.138238)"><path
         style="font-size:57.1793px;line-height:1.35;font-family:Wingdings;-inkscape-font-specification:Wingdings;letter-spacing:-2.27748px;fill:#1e90ff;fill-opacity:1;stroke-width:2.89757"
         d="m 126.46556,180.00355 q 1.09409,4.6499 2.48452,7.40794 1.39041,2.75803 4.23961,5.97193 l 0.82058,0.91175 q 3.71535,4.14844 3.71535,8.29689 0,4.58153 -3.32787,7.86381 -3.30507,3.28228 -7.93219,3.28228 -4.60431,0 -7.93218,-3.28228 -3.30509,-3.28228 -3.30509,-7.86381 0,-4.14845 3.71537,-8.29689 l 0.82057,-0.91175 q 2.8492,-3.2139 4.23963,-5.97193 1.3904,-2.75804 2.4617,-7.40794 z"
         id="path11"
         aria-label="S" /><path
         style="font-size:57.1793px;line-height:1.35;font-family:Wingdings;-inkscape-font-specification:Wingdings;letter-spacing:-2.27748px;fill:#1e90ff;fill-opacity:1;stroke-width:1.88341"
         d="m 146.04408,191.81066 q 0.71117,3.02243 1.61494,4.81516 0.90376,1.79271 2.75575,3.88175 l 0.53337,0.59263 q 2.41498,2.6965 2.41498,5.39298 0,2.978 -2.16311,5.11149 -2.1483,2.13348 -5.15593,2.13348 -2.99281,0 -5.15592,-2.13348 -2.1483,-2.13349 -2.1483,-5.11149 0,-2.69648 2.41498,-5.39298 l 0.53337,-0.59263 q 1.85199,-2.08904 2.75576,-3.88175 0.90377,-1.79273 1.60011,-4.81516 z"
         id="path12"
         aria-label="S" /><path
         style="font-size:57.1793px;line-height:1.35;font-family:Wingdings;-inkscape-font-specification:Wingdings;letter-spacing:-2.27748px;fill:#1e90ff;fill-opacity:1;stroke-width:1.22423"
         d="m 159.22414,199.48527 q 0.46225,1.96459 1.04971,3.12986 0.58745,1.16527 1.79124,2.52314 l 0.34668,0.38521 q 1.56974,1.75272 1.56974,3.50544 0,1.93569 -1.40603,3.32246 -1.39638,1.38677 -3.35134,1.38677 -1.94532,0 -3.35135,-1.38677 -1.3964,-1.38677 -1.3964,-3.32246 0,-1.75272 1.56975,-3.50544 l 0.34669,-0.38521 q 1.20378,-1.35787 1.79124,-2.52314 0.58744,-1.16527 1.04007,-3.12986 z"
         id="path13"
         aria-label="S" /><path
         style="font-size:57.1793px;line-height:1.35;font-family:Wingdings;-inkscape-font-specification:Wingdings;letter-spacing:-2.27748px;fill:#1e90ff;fill-opacity:1;stroke-width:0.795744"
         d="m 168.02529,204.47378 q 0.30047,1.27698 0.68231,2.03442 0.38185,0.75741 1.1643,1.64003 l 0.22536,0.25039 q 1.02032,1.13927 1.02032,2.27853 0,1.25821 -0.91391,2.1596 -0.90765,0.9014 -2.17838,0.9014 -1.26446,0 -2.17837,-0.9014 -0.90766,-0.90139 -0.90766,-2.1596 0,-1.13926 1.02033,-2.27853 l 0.22535,-0.25039 q 0.78246,-0.88262 1.1643,-1.64003 0.38185,-0.75744 0.67605,-2.03442 z"
         id="path14"
         aria-label="S" /></g></g></svg>
